# xmcd
#
# Track frame offsets:
#	150
#	16712
#	36620
#	53807
#	73807
#	90165
#	107487
#	126117
#	142510
#	164612
#
# Disc length: 2438 seconds
#
# Revision: 1
# Processed by: cddbd v1.5.2PL0 Copyright (c) Steve Scherf et al.
# Submitted via: audiograbber 1.83.01
#
DISCID=7a09840a
DTITLE=Ronnie Rogers - Tough Times Don't Last
DYEAR=1987
DGENRE=Country
TTITLE0=Tough times don't last
TTITLE1=Good timin' shoes
TTITLE2=Hang in with your fool
TTITLE3=Double datin'
TTITLE4=Crazy for love
TTITLE5=Don't know what I'm doin'
TTITLE6=Fall in Tennessee
TTITLE7=Let's play hooky
TTITLE8=Ripplin' waters (Taking care of their own)
TTITLE9=Eyes of the young
EXTD=
EXTT0=
EXTT1=
EXTT2=
EXTT3=
EXTT4=
EXTT5=
EXTT6=
EXTT7=
EXTT8=
EXTT9=
PLAYORDER=
